<mxfile host="65bd71144e">
    <diagram id="zadQwNWR8v1wNr7fPfQf" name="PÃ¡gina-1">
        <mxGraphModel dx="961" dy="614" grid="0" gridSize="10" guides="1" tooltips="1" connect="1" arrows="1" fold="1" page="1" pageScale="1" pageWidth="850" pageHeight="1100" background="#ffffff" math="0" shadow="0">
            <root>
                <mxCell id="0"/>
                <mxCell id="1" parent="0"/>
                <mxCell id="6" value="" style="rounded=1;whiteSpace=wrap;html=1;fillColor=#647687;fontColor=#ffffff;strokeColor=#000000;strokeWidth=3;" parent="1" vertex="1">
                    <mxGeometry x="437" y="191" width="280" height="280" as="geometry"/>
                </mxCell>
                <mxCell id="7" value="" style="rounded=1;whiteSpace=wrap;html=1;fillColor=#e3c800;fontColor=#000000;strokeColor=#000000;strokeWidth=3;" parent="1" vertex="1">
                    <mxGeometry x="482" y="241" width="185" height="200" as="geometry"/>
                </mxCell>
                <mxCell id="9" value="&lt;b&gt;&lt;font style=&quot;font-size: 20px;&quot;&gt;INTERNAL&lt;/font&gt;&lt;/b&gt;" style="text;html=1;strokeColor=none;fillColor=none;align=center;verticalAlign=middle;whiteSpace=wrap;rounded=0;fontSize=14;strokeWidth=3;" parent="1" vertex="1">
                    <mxGeometry x="514.5" y="194" width="110" height="20" as="geometry"/>
                </mxCell>
                <mxCell id="10" value="&lt;b&gt;DATABASE&lt;/b&gt;" style="text;html=1;strokeColor=none;fillColor=none;align=center;verticalAlign=middle;whiteSpace=wrap;rounded=0;fontSize=14;strokeWidth=3;" parent="1" vertex="1">
                    <mxGeometry x="519.5" y="246" width="110" height="20" as="geometry"/>
                </mxCell>
                <mxCell id="11" value="" style="rounded=1;whiteSpace=wrap;html=1;fillColor=#E725F5;fontColor=#ffffff;strokeColor=#000000;strokeWidth=3;" parent="1" vertex="1">
                    <mxGeometry x="69" y="191" width="304" height="278" as="geometry"/>
                </mxCell>
                <mxCell id="17" value="&lt;b style=&quot;&quot;&gt;&lt;font style=&quot;font-size: 20px;&quot;&gt;GRAPH&lt;/font&gt;&lt;/b&gt;" style="text;html=1;strokeColor=none;fillColor=none;align=center;verticalAlign=middle;whiteSpace=wrap;rounded=0;fontSize=14;strokeWidth=3;" parent="1" vertex="1">
                    <mxGeometry x="152" y="191" width="120" height="21" as="geometry"/>
                </mxCell>
                <mxCell id="18" value="&lt;b&gt;schema.graphqls&lt;/b&gt;" style="rounded=1;whiteSpace=wrap;html=1;strokeWidth=3;strokeColor=#000000;" parent="1" vertex="1">
                    <mxGeometry x="236" y="278" width="125" height="40" as="geometry"/>
                </mxCell>
                <mxCell id="21" value="&lt;b&gt;schema.resolvers.go&lt;/b&gt;" style="rounded=1;whiteSpace=wrap;html=1;strokeWidth=3;strokeColor=#000000;" parent="1" vertex="1">
                    <mxGeometry x="81" y="280" width="125" height="40" as="geometry"/>
                </mxCell>
                <mxCell id="22" value="&lt;b&gt;resolver.go&lt;/b&gt;" style="rounded=1;whiteSpace=wrap;html=1;strokeWidth=3;strokeColor=#000000;" parent="1" vertex="1">
                    <mxGeometry x="87" y="346" width="125" height="65" as="geometry"/>
                </mxCell>
                <mxCell id="37" style="edgeStyle=none;html=1;entryX=1;entryY=0.25;entryDx=0;entryDy=0;strokeColor=#000000;strokeWidth=3;" edge="1" parent="1" source="24" target="22">
                    <mxGeometry relative="1" as="geometry"/>
                </mxCell>
                <mxCell id="24" value="&lt;b&gt;course&lt;/b&gt;" style="rounded=1;whiteSpace=wrap;html=1;strokeWidth=3;strokeColor=#000000;" parent="1" vertex="1">
                    <mxGeometry x="514.5" y="341" width="125" height="40" as="geometry"/>
                </mxCell>
                <mxCell id="36" style="edgeStyle=none;html=1;entryX=0.5;entryY=1;entryDx=0;entryDy=0;strokeColor=#000000;strokeWidth=3;" edge="1" parent="1" source="27" target="22">
                    <mxGeometry relative="1" as="geometry">
                        <Array as="points">
                            <mxPoint x="577" y="452"/>
                            <mxPoint x="150" y="452"/>
                        </Array>
                    </mxGeometry>
                </mxCell>
                <mxCell id="27" value="&lt;b&gt;category&lt;/b&gt;" style="rounded=1;whiteSpace=wrap;html=1;strokeWidth=3;strokeColor=#000000;" parent="1" vertex="1">
                    <mxGeometry x="514.5" y="391" width="125" height="40" as="geometry"/>
                </mxCell>
                <mxCell id="34" value="&lt;b&gt;...N&lt;/b&gt;" style="rounded=1;whiteSpace=wrap;html=1;strokeWidth=3;strokeColor=#000000;" vertex="1" parent="1">
                    <mxGeometry x="514.5" y="289" width="125" height="40" as="geometry"/>
                </mxCell>
            </root>
        </mxGraphModel>
    </diagram>
</mxfile>